<svg class="svg" viewBox="0 0 20 20">
							<path d="M6.176,7.241V6.78c0-0.221-0.181-0.402-0.402-0.402c-0.221,0-0.403,0.181-0.403,0.402v0.461C4.79,7.416,4.365,7.955,4.365,8.591c0,0.636,0.424,1.175,1.006,1.35v3.278c0,0.222,0.182,0.402,0.403,0.402c0.222,0,0.402-0.181,0.402-0.402V9.941c0.582-0.175,1.006-0.714,1.006-1.35C7.183,7.955,6.758,7.416,6.176,7.241 M5.774,9.195c-0.332,0-0.604-0.272-0.604-0.604c0-0.332,0.272-0.604,0.604-0.604c0.332,0,0.604,0.272,0.604,0.604C6.377,8.923,6.105,9.195,5.774,9.195 M10.402,10.058V6.78c0-0.221-0.181-0.402-0.402-0.402c-0.222,0-0.402,0.181-0.402,0.402v3.278c-0.582,0.175-1.006,0.714-1.006,1.35c0,0.637,0.424,1.175,1.006,1.351v0.461c0,0.222,0.181,0.402,0.402,0.402c0.221,0,0.402-0.181,0.402-0.402v-0.461c0.582-0.176,1.006-0.714,1.006-1.351C11.408,10.772,10.984,10.233,10.402,10.058M10,12.013c-0.333,0-0.604-0.272-0.604-0.604S9.667,10.805,10,10.805c0.332,0,0.604,0.271,0.604,0.604S10.332,12.013,10,12.013M14.629,8.448V6.78c0-0.221-0.182-0.402-0.403-0.402c-0.221,0-0.402,0.181-0.402,0.402v1.668c-0.581,0.175-1.006,0.714-1.006,1.35c0,0.636,0.425,1.176,1.006,1.351v2.07c0,0.222,0.182,0.402,0.402,0.402c0.222,0,0.403-0.181,0.403-0.402v-2.07c0.581-0.175,1.006-0.715,1.006-1.351C15.635,9.163,15.21,8.624,14.629,8.448 M14.226,10.402c-0.331,0-0.604-0.272-0.604-0.604c0-0.332,0.272-0.604,0.604-0.604c0.332,0,0.604,0.272,0.604,0.604C14.83,10.13,14.558,10.402,14.226,10.402 M17.647,3.962H2.353c-0.221,0-0.402,0.181-0.402,0.402v11.27c0,0.222,0.181,0.402,0.402,0.402h15.295c0.222,0,0.402-0.181,0.402-0.402V4.365C18.05,4.144,17.869,3.962,17.647,3.962 M17.245,15.232H2.755V4.768h14.49V15.232z"></path>
						</svg>