<svg class="svg" viewBox="0 0 20 20">
							<path fill="none" d="M12.361,6.852H7.639C5.9,6.852,4.491,8.262,4.491,10s1.409,3.148,3.148,3.148h4.723c1.738,0,3.148-1.41,3.148-3.148S14.1,6.852,12.361,6.852z M12.361,12.361H7.639c-1.304,0-2.361-1.058-2.361-2.361s1.057-2.36,2.361-2.36h4.723c1.304,0,2.36,1.057,2.36,2.36S13.665,12.361,12.361,12.361z M10,0.949c-4.999,0-9.051,4.053-9.051,9.051S5.001,19.051,10,19.051c4.999,0,9.051-4.053,9.051-9.051S14.999,0.949,10,0.949z M10,18.264c-4.564,0-8.264-3.699-8.264-8.264S5.436,1.736,10,1.736c4.564,0,8.264,3.699,8.264,8.264S14.564,18.264,10,18.264z M7.639,8.819c-0.652,0-1.18,0.528-1.18,1.181s0.528,1.181,1.18,1.181c0.652,0,1.181-0.528,1.181-1.181S8.291,8.819,7.639,8.819z"></path>
						</svg>